<mxfile host="" modified="2020-05-24T15:21:41.060Z" agent="5.0 (X11; Linux x86_64) AppleWebKit/537.36 (KHTML, like Gecko) Code/1.45.0 Chrome/78.0.3904.130 Electron/7.2.4 Safari/537.36" version="13.1.3" etag="lrwgP8mNOWNbAz78NI_h" pages="2">
            <diagram id="diagramid" name="Diagram">
              <mxGraphModel><root><mxCell id="0"/><mxCell id="1" parent="0"/><mxCell id="2" value="vpcA2121C38" style="outlineConnect=0;fontColor=#B3B3B3;gradientColor=#945DF2;gradientDirection=north;fillColor=#5A30B5;strokeColor=#ffffff;dashed=0;verticalLabelPosition=bottom;verticalAlign=top;align=center;html=1;fontSize=12;fontStyle=0;aspect=fixed;shape=mxgraph.aws4.resourceIcon;resIcon=mxgraph.aws4.vpc;" vertex="1" parent="1"><mxGeometry x="1000" y="775" width="50" height="50" as="geometry"/></mxCell><mxCell id="3" value="vpcPublicSubnet1Subnet2E65531E" style="outlineConnect=0;fontColor=#B3B3B3;gradientColor=#F78E04;gradientDirection=north;fillColor=#D05C17;strokeColor=#ffffff;dashed=0;verticalLabelPosition=bottom;verticalAlign=top;align=center;html=1;fontSize=12;fontStyle=0;aspect=fixed;shape=mxgraph.aws4.resourceIcon;resIcon=mxgraph.aws4.ec2;" vertex="1" parent="1"><mxGeometry x="500" y="275" width="50" height="50" as="geometry"/></mxCell><mxCell id="4" value="vpcPublicSubnet1RouteTable48A2DF9B" style="outlineConnect=0;fontColor=#B3B3B3;gradientColor=#945DF2;gradientDirection=north;fillColor=#5A30B5;strokeColor=#ffffff;dashed=0;verticalLabelPosition=bottom;verticalAlign=top;align=center;html=1;fontSize=12;fontStyle=0;aspect=fixed;shape=mxgraph.aws4.resourceIcon;resIcon=mxgraph.aws4.route_table;" vertex="1" parent="1"><mxGeometry x="250" y="50" width="50" height="50" as="geometry"/></mxCell><mxCell id="5" value="vpcPublicSubnet1RouteTableAssociation5D3F4579" style="outlineConnect=0;fontColor=#B3B3B3;gradientColor=#945DF2;gradientDirection=north;fillColor=#5A30B5;strokeColor=#ffffff;dashed=0;verticalLabelPosition=bottom;verticalAlign=top;align=center;html=1;fontSize=12;fontStyle=0;aspect=fixed;shape=mxgraph.aws4.resourceIcon;resIcon=mxgraph.aws4.route_table;" vertex="1" parent="1"><mxGeometry y="12.5" width="50" height="50" as="geometry"/></mxCell><mxCell id="6" value="vpcPublicSubnet1DefaultRoute10708846" style="outlineConnect=0;fontColor=#B3B3B3;gradientColor=#945DF2;gradientDirection=north;fillColor=#5A30B5;strokeColor=#ffffff;dashed=0;verticalLabelPosition=bottom;verticalAlign=top;align=center;html=1;fontSize=12;fontStyle=0;aspect=fixed;shape=mxgraph.aws4.resourceIcon;resIcon=mxgraph.aws4.route_table;" vertex="1" parent="1"><mxGeometry y="112.5" width="50" height="50" as="geometry"/></mxCell><mxCell id="7" value="vpcPublicSubnet1EIPDA49DCBE" style="outlineConnect=0;fontColor=#B3B3B3;gradientColor=#945DF2;gradientDirection=north;fillColor=#5A30B5;strokeColor=#ffffff;dashed=0;verticalLabelPosition=bottom;verticalAlign=top;align=center;html=1;fontSize=12;fontStyle=0;aspect=fixed;shape=mxgraph.aws4.resourceIcon;resIcon=mxgraph.aws4.elastic_ip_address;" vertex="1" parent="1"><mxGeometry x="500" y="375" width="50" height="50" as="geometry"/></mxCell><mxCell id="8" value="vpcPublicSubnet1NATGateway9C16659E" style="outlineConnect=0;fontColor=#B3B3B3;gradientColor=#945DF2;gradientDirection=north;fillColor=#5A30B5;strokeColor=#ffffff;dashed=0;verticalLabelPosition=bottom;verticalAlign=top;align=center;html=1;fontSize=12;fontStyle=0;aspect=fixed;shape=mxgraph.aws4.resourceIcon;resIcon=mxgraph.aws4.nat_gateway;" vertex="1" parent="1"><mxGeometry x="250" y="400" width="50" height="50" as="geometry"/></mxCell><mxCell id="9" value="vpcPublicSubnet2Subnet009B674F" style="outlineConnect=0;fontColor=#B3B3B3;gradientColor=#F78E04;gradientDirection=north;fillColor=#D05C17;strokeColor=#ffffff;dashed=0;verticalLabelPosition=bottom;verticalAlign=top;align=center;html=1;fontSize=12;fontStyle=0;aspect=fixed;shape=mxgraph.aws4.resourceIcon;resIcon=mxgraph.aws4.ec2;" vertex="1" parent="1"><mxGeometry x="500" y="625" width="50" height="50" as="geometry"/></mxCell><mxCell id="10" value="vpcPublicSubnet2RouteTableEB40D4CB" style="outlineConnect=0;fontColor=#B3B3B3;gradientColor=#945DF2;gradientDirection=north;fillColor=#5A30B5;strokeColor=#ffffff;dashed=0;verticalLabelPosition=bottom;verticalAlign=top;align=center;html=1;fontSize=12;fontStyle=0;aspect=fixed;shape=mxgraph.aws4.resourceIcon;resIcon=mxgraph.aws4.route_table;" vertex="1" parent="1"><mxGeometry x="250" y="250" width="50" height="50" as="geometry"/></mxCell><mxCell id="11" value="vpcPublicSubnet2RouteTableAssociation21F81B59" style="outlineConnect=0;fontColor=#B3B3B3;gradientColor=#945DF2;gradientDirection=north;fillColor=#5A30B5;strokeColor=#ffffff;dashed=0;verticalLabelPosition=bottom;verticalAlign=top;align=center;html=1;fontSize=12;fontStyle=0;aspect=fixed;shape=mxgraph.aws4.resourceIcon;resIcon=mxgraph.aws4.route_table;" vertex="1" parent="1"><mxGeometry y="312.5" width="50" height="50" as="geometry"/></mxCell><mxCell id="12" value="vpcPublicSubnet2DefaultRouteA1EC0F60" style="outlineConnect=0;fontColor=#B3B3B3;gradientColor=#945DF2;gradientDirection=north;fillColor=#5A30B5;strokeColor=#ffffff;dashed=0;verticalLabelPosition=bottom;verticalAlign=top;align=center;html=1;fontSize=12;fontStyle=0;aspect=fixed;shape=mxgraph.aws4.resourceIcon;resIcon=mxgraph.aws4.route_table;" vertex="1" parent="1"><mxGeometry y="212.5" width="50" height="50" as="geometry"/></mxCell><mxCell id="13" value="vpcPrivateSubnet1Subnet934893E8" style="outlineConnect=0;fontColor=#B3B3B3;gradientColor=#F78E04;gradientDirection=north;fillColor=#D05C17;strokeColor=#ffffff;dashed=0;verticalLabelPosition=bottom;verticalAlign=top;align=center;html=1;fontSize=12;fontStyle=0;aspect=fixed;shape=mxgraph.aws4.resourceIcon;resIcon=mxgraph.aws4.ec2;" vertex="1" parent="1"><mxGeometry x="750" y="850" width="50" height="50" as="geometry"/></mxCell><mxCell id="14" value="vpcPrivateSubnet1RouteTableB41A48CC" style="outlineConnect=0;fontColor=#B3B3B3;gradientColor=#945DF2;gradientDirection=north;fillColor=#5A30B5;strokeColor=#ffffff;dashed=0;verticalLabelPosition=bottom;verticalAlign=top;align=center;html=1;fontSize=12;fontStyle=0;aspect=fixed;shape=mxgraph.aws4.resourceIcon;resIcon=mxgraph.aws4.route_table;" vertex="1" parent="1"><mxGeometry x="250" y="500" width="50" height="50" as="geometry"/></mxCell><mxCell id="15" value="vpcPrivateSubnet1RouteTableAssociation67945127" style="outlineConnect=0;fontColor=#B3B3B3;gradientColor=#945DF2;gradientDirection=north;fillColor=#5A30B5;strokeColor=#ffffff;dashed=0;verticalLabelPosition=bottom;verticalAlign=top;align=center;html=1;fontSize=12;fontStyle=0;aspect=fixed;shape=mxgraph.aws4.resourceIcon;resIcon=mxgraph.aws4.route_table;" vertex="1" parent="1"><mxGeometry y="650" width="50" height="50" as="geometry"/></mxCell><mxCell id="16" value="vpcPrivateSubnet1DefaultRoute1AA8E2E5" style="outlineConnect=0;fontColor=#B3B3B3;gradientColor=#945DF2;gradientDirection=north;fillColor=#5A30B5;strokeColor=#ffffff;dashed=0;verticalLabelPosition=bottom;verticalAlign=top;align=center;html=1;fontSize=12;fontStyle=0;aspect=fixed;shape=mxgraph.aws4.resourceIcon;resIcon=mxgraph.aws4.route_table;" vertex="1" parent="1"><mxGeometry y="450" width="50" height="50" as="geometry"/></mxCell><mxCell id="17" value="vpcPrivateSubnet2Subnet7031C2BA" style="outlineConnect=0;fontColor=#B3B3B3;gradientColor=#F78E04;gradientDirection=north;fillColor=#D05C17;strokeColor=#ffffff;dashed=0;verticalLabelPosition=bottom;verticalAlign=top;align=center;html=1;fontSize=12;fontStyle=0;aspect=fixed;shape=mxgraph.aws4.resourceIcon;resIcon=mxgraph.aws4.ec2;" vertex="1" parent="1"><mxGeometry x="750" y="1006.25" width="50" height="50" as="geometry"/></mxCell><mxCell id="18" value="vpcPrivateSubnet2RouteTable7280F23E" style="outlineConnect=0;fontColor=#B3B3B3;gradientColor=#945DF2;gradientDirection=north;fillColor=#5A30B5;strokeColor=#ffffff;dashed=0;verticalLabelPosition=bottom;verticalAlign=top;align=center;html=1;fontSize=12;fontStyle=0;aspect=fixed;shape=mxgraph.aws4.resourceIcon;resIcon=mxgraph.aws4.route_table;" vertex="1" parent="1"><mxGeometry x="250" y="650" width="50" height="50" as="geometry"/></mxCell><mxCell id="19" value="vpcPrivateSubnet2RouteTableAssociation007E94D3" style="outlineConnect=0;fontColor=#B3B3B3;gradientColor=#945DF2;gradientDirection=north;fillColor=#5A30B5;strokeColor=#ffffff;dashed=0;verticalLabelPosition=bottom;verticalAlign=top;align=center;html=1;fontSize=12;fontStyle=0;aspect=fixed;shape=mxgraph.aws4.resourceIcon;resIcon=mxgraph.aws4.route_table;" vertex="1" parent="1"><mxGeometry y="950" width="50" height="50" as="geometry"/></mxCell><mxCell id="20" value="vpcPrivateSubnet2DefaultRouteB0E07F99" style="outlineConnect=0;fontColor=#B3B3B3;gradientColor=#945DF2;gradientDirection=north;fillColor=#5A30B5;strokeColor=#ffffff;dashed=0;verticalLabelPosition=bottom;verticalAlign=top;align=center;html=1;fontSize=12;fontStyle=0;aspect=fixed;shape=mxgraph.aws4.resourceIcon;resIcon=mxgraph.aws4.route_table;" vertex="1" parent="1"><mxGeometry y="550" width="50" height="50" as="geometry"/></mxCell><mxCell id="21" value="vpcIGWE57CBDCA" style="outlineConnect=0;fontColor=#B3B3B3;gradientColor=#F78E04;gradientDirection=north;fillColor=#D05C17;strokeColor=#ffffff;dashed=0;verticalLabelPosition=bottom;verticalAlign=top;align=center;html=1;fontSize=12;fontStyle=0;aspect=fixed;shape=mxgraph.aws4.resourceIcon;resIcon=mxgraph.aws4.ec2;" vertex="1" parent="1"><mxGeometry x="250" y="150" width="50" height="50" as="geometry"/></mxCell><mxCell id="22" value="vpcVPCGW7984C166" style="outlineConnect=0;fontColor=#B3B3B3;gradientColor=#F78E04;gradientDirection=north;fillColor=#D05C17;strokeColor=#ffffff;dashed=0;verticalLabelPosition=bottom;verticalAlign=top;align=center;html=1;fontSize=12;fontStyle=0;aspect=fixed;shape=mxgraph.aws4.resourceIcon;resIcon=mxgraph.aws4.ec2;" vertex="1" parent="1"><mxGeometry y="750" width="50" height="50" as="geometry"/></mxCell><mxCell id="23" value="InstanceSubnetGroupF2CBA54F" style="outlineConnect=0;fontColor=#B3B3B3;gradientColor=#4D72F3;gradientDirection=north;fillColor=#3334B9;strokeColor=#ffffff;dashed=0;verticalLabelPosition=bottom;verticalAlign=top;align=center;html=1;fontSize=12;fontStyle=0;aspect=fixed;shape=mxgraph.aws4.resourceIcon;resIcon=mxgraph.aws4.rds;" vertex="1" parent="1"><mxGeometry x="500" y="875" width="50" height="50" as="geometry"/></mxCell><mxCell id="24" value="InstanceSecurityGroupB4E5FA83" style="outlineConnect=0;fontColor=#B3B3B3;gradientColor=#F78E04;gradientDirection=north;fillColor=#D05C17;strokeColor=#ffffff;dashed=0;verticalLabelPosition=bottom;verticalAlign=top;align=center;html=1;fontSize=12;fontStyle=0;aspect=fixed;shape=mxgraph.aws4.resourceIcon;resIcon=mxgraph.aws4.ec2;" vertex="1" parent="1"><mxGeometry x="500" y="975" width="50" height="50" as="geometry"/></mxCell><mxCell id="25" value="InstanceSecret478E0A47" style="outlineConnect=0;fontColor=#B3B3B3;gradientColor=#F54749;gradientDirection=north;fillColor=#C7131F;strokeColor=#ffffff;dashed=0;verticalLabelPosition=bottom;verticalAlign=top;align=center;html=1;fontSize=12;fontStyle=0;aspect=fixed;shape=mxgraph.aws4.resourceIcon;resIcon=mxgraph.aws4.secretsmanager;" vertex="1" parent="1"><mxGeometry x="500" y="775" width="50" height="50" as="geometry"/></mxCell><mxCell id="26" value="InstanceSecretAttachment83BEE581" style="outlineConnect=0;fontColor=#B3B3B3;gradientColor=#F54749;gradientDirection=north;fillColor=#C7131F;strokeColor=#ffffff;dashed=0;verticalLabelPosition=bottom;verticalAlign=top;align=center;html=1;fontSize=12;fontStyle=0;aspect=fixed;shape=mxgraph.aws4.resourceIcon;resIcon=mxgraph.aws4.secretsmanager;" vertex="1" parent="1"><mxGeometry y="850" width="50" height="50" as="geometry"/></mxCell><mxCell id="27" value="InstanceC1063A87" style="outlineConnect=0;fontColor=#B3B3B3;gradientColor=#4D72F3;gradientDirection=north;fillColor=#3334B9;strokeColor=#ffffff;dashed=0;verticalLabelPosition=bottom;verticalAlign=top;align=center;html=1;fontSize=12;fontStyle=0;aspect=fixed;shape=mxgraph.aws4.resourceIcon;resIcon=mxgraph.aws4.rds;" vertex="1" parent="1"><mxGeometry x="250" y="850" width="50" height="50" as="geometry"/></mxCell><mxCell id="28" value="LB8A12904C" style="outlineConnect=0;fontColor=#B3B3B3;gradientColor=#aaaaaa;gradientDirection=north;fillColor=#aaaaaa;strokeColor=#ffffff;dashed=0;verticalLabelPosition=bottom;verticalAlign=top;align=center;html=1;fontSize=12;fontStyle=0;aspect=fixed;shape=mxgraph.aws4.resourceIcon;resIcon=mxgraph.aws4.elasticloadbalancingv2;" vertex="1" parent="1"><mxGeometry x="250" y="1000" width="50" height="50" as="geometry"/></mxCell><mxCell id="29" value="LBSecurityGroup8A41EA2B" style="outlineConnect=0;fontColor=#B3B3B3;gradientColor=#F78E04;gradientDirection=north;fillColor=#D05C17;strokeColor=#ffffff;dashed=0;verticalLabelPosition=bottom;verticalAlign=top;align=center;html=1;fontSize=12;fontStyle=0;aspect=fixed;shape=mxgraph.aws4.resourceIcon;resIcon=mxgraph.aws4.ec2;" vertex="1" parent="1"><mxGeometry x="500" y="1125" width="50" height="50" as="geometry"/></mxCell><mxCell id="30" value="LBSecurityGrouptoSpringPipelinefargateServiceSecurityGroupB09D3B188080EBA8DEB8" style="outlineConnect=0;fontColor=#B3B3B3;gradientColor=#F78E04;gradientDirection=north;fillColor=#D05C17;strokeColor=#ffffff;dashed=0;verticalLabelPosition=bottom;verticalAlign=top;align=center;html=1;fontSize=12;fontStyle=0;aspect=fixed;shape=mxgraph.aws4.resourceIcon;resIcon=mxgraph.aws4.ec2;" vertex="1" parent="1"><mxGeometry x="250" y="1200" width="50" height="50" as="geometry"/></mxCell><mxCell id="31" value="LBPublicListener6E1F3D94" style="outlineConnect=0;fontColor=#B3B3B3;gradientColor=#aaaaaa;gradientDirection=north;fillColor=#aaaaaa;strokeColor=#ffffff;dashed=0;verticalLabelPosition=bottom;verticalAlign=top;align=center;html=1;fontSize=12;fontStyle=0;aspect=fixed;shape=mxgraph.aws4.resourceIcon;resIcon=mxgraph.aws4.elasticloadbalancingv2;" vertex="1" parent="1"><mxGeometry y="1250" width="50" height="50" as="geometry"/></mxCell><mxCell id="32" value="LBPublicListenerECSGroupD6A32205" style="outlineConnect=0;fontColor=#B3B3B3;gradientColor=#aaaaaa;gradientDirection=north;fillColor=#aaaaaa;strokeColor=#ffffff;dashed=0;verticalLabelPosition=bottom;verticalAlign=top;align=center;html=1;fontSize=12;fontStyle=0;aspect=fixed;shape=mxgraph.aws4.resourceIcon;resIcon=mxgraph.aws4.elasticloadbalancingv2;" vertex="1" parent="1"><mxGeometry x="750" y="1256.25" width="50" height="50" as="geometry"/></mxCell><mxCell id="33" value="LBPublicRedirectListener582DF3B9" style="outlineConnect=0;fontColor=#B3B3B3;gradientColor=#aaaaaa;gradientDirection=north;fillColor=#aaaaaa;strokeColor=#ffffff;dashed=0;verticalLabelPosition=bottom;verticalAlign=top;align=center;html=1;fontSize=12;fontStyle=0;aspect=fixed;shape=mxgraph.aws4.resourceIcon;resIcon=mxgraph.aws4.elasticloadbalancingv2;" vertex="1" parent="1"><mxGeometry y="1050" width="50" height="50" as="geometry"/></mxCell><mxCell id="34" value="cluster611F8AFF" style="outlineConnect=0;fontColor=#B3B3B3;gradientColor=#F78E04;gradientDirection=north;fillColor=#D05C17;strokeColor=#ffffff;dashed=0;verticalLabelPosition=bottom;verticalAlign=top;align=center;html=1;fontSize=12;fontStyle=0;aspect=fixed;shape=mxgraph.aws4.resourceIcon;resIcon=mxgraph.aws4.ecs;" vertex="1" parent="1"><mxGeometry x="750" y="1556.25" width="50" height="50" as="geometry"/></mxCell><mxCell id="35" value="ecsTaskExecutionRole34F54B99" style="outlineConnect=0;fontColor=#B3B3B3;gradientColor=#F54749;gradientDirection=north;fillColor=#C7131F;strokeColor=#ffffff;dashed=0;verticalLabelPosition=bottom;verticalAlign=top;align=center;html=1;fontSize=12;fontStyle=0;aspect=fixed;shape=mxgraph.aws4.resourceIcon;resIcon=mxgraph.aws4.role;" vertex="1" parent="1"><mxGeometry x="1000" y="1475" width="50" height="50" as="geometry"/></mxCell><mxCell id="36" value="taskDef43A87EA0" style="outlineConnect=0;fontColor=#B3B3B3;gradientColor=#F78E04;gradientDirection=north;fillColor=#D05C17;strokeColor=#ffffff;dashed=0;verticalLabelPosition=bottom;verticalAlign=top;align=center;html=1;fontSize=12;fontStyle=0;aspect=fixed;shape=mxgraph.aws4.resourceIcon;resIcon=mxgraph.aws4.ecs;" vertex="1" parent="1"><mxGeometry x="750" y="1456.25" width="50" height="50" as="geometry"/></mxCell><mxCell id="37" value="taskDefExecutionRole9295A8C0" style="outlineConnect=0;fontColor=#B3B3B3;gradientColor=#F54749;gradientDirection=north;fillColor=#C7131F;strokeColor=#ffffff;dashed=0;verticalLabelPosition=bottom;verticalAlign=top;align=center;html=1;fontSize=12;fontStyle=0;aspect=fixed;shape=mxgraph.aws4.resourceIcon;resIcon=mxgraph.aws4.role;" vertex="1" parent="1"><mxGeometry x="1000" y="1375" width="50" height="50" as="geometry"/></mxCell><mxCell id="38" value="taskDefExecutionRoleDefaultPolicy5FB63CF7" style="outlineConnect=0;fontColor=#B3B3B3;gradientColor=#F54749;gradientDirection=north;fillColor=#C7131F;strokeColor=#ffffff;dashed=0;verticalLabelPosition=bottom;verticalAlign=top;align=center;html=1;fontSize=12;fontStyle=0;aspect=fixed;shape=mxgraph.aws4.resourceIcon;resIcon=mxgraph.aws4.identity_and_access_management;" vertex="1" parent="1"><mxGeometry x="750" y="1356.25" width="50" height="50" as="geometry"/></mxCell><mxCell id="39" value="taskDefcontainerLogGroup46D582FF" style="outlineConnect=0;fontColor=#B3B3B3;gradientColor=#F34482;gradientDirection=north;fillColor=#BC1356;strokeColor=#ffffff;dashed=0;verticalLabelPosition=bottom;verticalAlign=top;align=center;html=1;fontSize=12;fontStyle=0;aspect=fixed;shape=mxgraph.aws4.resourceIcon;resIcon=mxgraph.aws4.cloudwatch;" vertex="1" parent="1"><mxGeometry x="1000" y="1275" width="50" height="50" as="geometry"/></mxCell><mxCell id="40" value="fargateServiceDNS5EF1DE4A" style="outlineConnect=0;fontColor=#B3B3B3;gradientColor=#945DF2;gradientDirection=north;fillColor=#5A30B5;strokeColor=#ffffff;dashed=0;verticalLabelPosition=bottom;verticalAlign=top;align=center;html=1;fontSize=12;fontStyle=0;aspect=fixed;shape=mxgraph.aws4.resourceIcon;resIcon=mxgraph.aws4.route53;" vertex="1" parent="1"><mxGeometry y="1150" width="50" height="50" as="geometry"/></mxCell><mxCell id="41" value="fargateService93A22105" style="outlineConnect=0;fontColor=#B3B3B3;gradientColor=#F78E04;gradientDirection=north;fillColor=#D05C17;strokeColor=#ffffff;dashed=0;verticalLabelPosition=bottom;verticalAlign=top;align=center;html=1;fontSize=12;fontStyle=0;aspect=fixed;shape=mxgraph.aws4.resourceIcon;resIcon=mxgraph.aws4.ecs;" vertex="1" parent="1"><mxGeometry x="500" y="1375" width="50" height="50" as="geometry"/></mxCell><mxCell id="42" value="fargateServiceSecurityGroup030B57B1" style="outlineConnect=0;fontColor=#B3B3B3;gradientColor=#F78E04;gradientDirection=north;fillColor=#D05C17;strokeColor=#ffffff;dashed=0;verticalLabelPosition=bottom;verticalAlign=top;align=center;html=1;fontSize=12;fontStyle=0;aspect=fixed;shape=mxgraph.aws4.resourceIcon;resIcon=mxgraph.aws4.ec2;" vertex="1" parent="1"><mxGeometry x="750" y="1156.25" width="50" height="50" as="geometry"/></mxCell><mxCell id="43" value="fargateServiceSecurityGroupfromSpringPipelineLBSecurityGroup7F9ABB848080FBCB9B28" style="outlineConnect=0;fontColor=#B3B3B3;gradientColor=#F78E04;gradientDirection=north;fillColor=#D05C17;strokeColor=#ffffff;dashed=0;verticalLabelPosition=bottom;verticalAlign=top;align=center;html=1;fontSize=12;fontStyle=0;aspect=fixed;shape=mxgraph.aws4.resourceIcon;resIcon=mxgraph.aws4.ec2;" vertex="1" parent="1"><mxGeometry x="250" y="1300" width="50" height="50" as="geometry"/></mxCell><mxCell id="44" value="fargateServiceTaskCountTarget4289FD73" style="outlineConnect=0;fontColor=#B3B3B3;gradientColor=#aaaaaa;gradientDirection=north;fillColor=#aaaaaa;strokeColor=#ffffff;dashed=0;verticalLabelPosition=bottom;verticalAlign=top;align=center;html=1;fontSize=12;fontStyle=0;aspect=fixed;shape=mxgraph.aws4.resourceIcon;resIcon=mxgraph.aws4.applicationautoscaling;" vertex="1" parent="1"><mxGeometry x="250" y="1450" width="50" height="50" as="geometry"/></mxCell><mxCell id="45" value="fargateServiceTaskCountTargetCpuScaling014C4F36" style="outlineConnect=0;fontColor=#B3B3B3;gradientColor=#aaaaaa;gradientDirection=north;fillColor=#aaaaaa;strokeColor=#ffffff;dashed=0;verticalLabelPosition=bottom;verticalAlign=top;align=center;html=1;fontSize=12;fontStyle=0;aspect=fixed;shape=mxgraph.aws4.resourceIcon;resIcon=mxgraph.aws4.applicationautoscaling;" vertex="1" parent="1"><mxGeometry y="1450" width="50" height="50" as="geometry"/></mxCell><mxCell id="46" value="EcrRepoBB83A592" style="outlineConnect=0;fontColor=#B3B3B3;gradientColor=#aaaaaa;gradientDirection=north;fillColor=#aaaaaa;strokeColor=#ffffff;dashed=0;verticalLabelPosition=bottom;verticalAlign=top;align=center;html=1;fontSize=12;fontStyle=0;aspect=fixed;shape=mxgraph.aws4.resourceIcon;resIcon=mxgraph.aws4.ecr;" vertex="1" parent="1"><mxGeometry x="750" y="1862.5" width="50" height="50" as="geometry"/></mxCell><mxCell id="47" value="projectRole1577EB66" style="outlineConnect=0;fontColor=#B3B3B3;gradientColor=#F54749;gradientDirection=north;fillColor=#C7131F;strokeColor=#ffffff;dashed=0;verticalLabelPosition=bottom;verticalAlign=top;align=center;html=1;fontSize=12;fontStyle=0;aspect=fixed;shape=mxgraph.aws4.resourceIcon;resIcon=mxgraph.aws4.role;" vertex="1" parent="1"><mxGeometry x="750" y="1675" width="50" height="50" as="geometry"/></mxCell><mxCell id="48" value="projectRoleDefaultPolicy3F10B507" style="outlineConnect=0;fontColor=#B3B3B3;gradientColor=#F54749;gradientDirection=north;fillColor=#C7131F;strokeColor=#ffffff;dashed=0;verticalLabelPosition=bottom;verticalAlign=top;align=center;html=1;fontSize=12;fontStyle=0;aspect=fixed;shape=mxgraph.aws4.resourceIcon;resIcon=mxgraph.aws4.identity_and_access_management;" vertex="1" parent="1"><mxGeometry x="250" y="1850" width="50" height="50" as="geometry"/></mxCell><mxCell id="49" value="projectC7BA6BD1" style="outlineConnect=0;fontColor=#B3B3B3;gradientColor=#aaaaaa;gradientDirection=north;fillColor=#aaaaaa;strokeColor=#ffffff;dashed=0;verticalLabelPosition=bottom;verticalAlign=top;align=center;html=1;fontSize=12;fontStyle=0;aspect=fixed;shape=mxgraph.aws4.resourceIcon;resIcon=mxgraph.aws4.codebuild;" vertex="1" parent="1"><mxGeometry x="500" y="2025" width="50" height="50" as="geometry"/></mxCell><mxCell id="50" value="SourceAssetBucket61A8AEF8" style="outlineConnect=0;fontColor=#B3B3B3;gradientColor=#60A337;gradientDirection=north;fillColor=#277116;strokeColor=#ffffff;dashed=0;verticalLabelPosition=bottom;verticalAlign=top;align=center;html=1;fontSize=12;fontStyle=0;aspect=fixed;shape=mxgraph.aws4.resourceIcon;resIcon=mxgraph.aws4.s3;" vertex="1" parent="1"><mxGeometry x="250" y="1700" width="50" height="50" as="geometry"/></mxCell><mxCell id="51" value="PipelineArtifactsBucketC4BB9BE3" style="outlineConnect=0;fontColor=#B3B3B3;gradientColor=#60A337;gradientDirection=north;fillColor=#277116;strokeColor=#ffffff;dashed=0;verticalLabelPosition=bottom;verticalAlign=top;align=center;html=1;fontSize=12;fontStyle=0;aspect=fixed;shape=mxgraph.aws4.resourceIcon;resIcon=mxgraph.aws4.s3;" vertex="1" parent="1"><mxGeometry x="500" y="1625" width="50" height="50" as="geometry"/></mxCell><mxCell id="52" value="CodeBuildRole728CBADE" style="outlineConnect=0;fontColor=#B3B3B3;gradientColor=#F54749;gradientDirection=north;fillColor=#C7131F;strokeColor=#ffffff;dashed=0;verticalLabelPosition=bottom;verticalAlign=top;align=center;html=1;fontSize=12;fontStyle=0;aspect=fixed;shape=mxgraph.aws4.resourceIcon;resIcon=mxgraph.aws4.role;" vertex="1" parent="1"><mxGeometry x="250" y="1550" width="50" height="50" as="geometry"/></mxCell><mxCell id="53" value="CodeBuildRoleDefaultPolicy829527DE" style="outlineConnect=0;fontColor=#B3B3B3;gradientColor=#F54749;gradientDirection=north;fillColor=#C7131F;strokeColor=#ffffff;dashed=0;verticalLabelPosition=bottom;verticalAlign=top;align=center;html=1;fontSize=12;fontStyle=0;aspect=fixed;shape=mxgraph.aws4.resourceIcon;resIcon=mxgraph.aws4.identity_and_access_management;" vertex="1" parent="1"><mxGeometry y="1625" width="50" height="50" as="geometry"/></mxCell><mxCell id="54" value="CodePipelineRoleB31C27BE" style="outlineConnect=0;fontColor=#B3B3B3;gradientColor=#F54749;gradientDirection=north;fillColor=#C7131F;strokeColor=#ffffff;dashed=0;verticalLabelPosition=bottom;verticalAlign=top;align=center;html=1;fontSize=12;fontStyle=0;aspect=fixed;shape=mxgraph.aws4.resourceIcon;resIcon=mxgraph.aws4.role;" vertex="1" parent="1"><mxGeometry x="500" y="1775" width="50" height="50" as="geometry"/></mxCell><mxCell id="55" value="CodePipelineRoleDefaultPolicy2731C56D" style="outlineConnect=0;fontColor=#B3B3B3;gradientColor=#F54749;gradientDirection=north;fillColor=#C7131F;strokeColor=#ffffff;dashed=0;verticalLabelPosition=bottom;verticalAlign=top;align=center;html=1;fontSize=12;fontStyle=0;aspect=fixed;shape=mxgraph.aws4.resourceIcon;resIcon=mxgraph.aws4.identity_and_access_management;" vertex="1" parent="1"><mxGeometry y="1850" width="50" height="50" as="geometry"/></mxCell><mxCell id="56" value="AssetsCodePipelineC9CF3FAA" style="outlineConnect=0;fontColor=#B3B3B3;gradientColor=#aaaaaa;gradientDirection=north;fillColor=#aaaaaa;strokeColor=#ffffff;dashed=0;verticalLabelPosition=bottom;verticalAlign=top;align=center;html=1;fontSize=12;fontStyle=0;aspect=fixed;shape=mxgraph.aws4.resourceIcon;resIcon=mxgraph.aws4.codepipeline;" vertex="1" parent="1"><mxGeometry x="250" y="2150" width="50" height="50" as="geometry"/></mxCell><mxCell id="57" value="AssetsCodePipelineSourceGitHubSourceWebhookResource6EE4E222" style="outlineConnect=0;fontColor=#B3B3B3;gradientColor=#aaaaaa;gradientDirection=north;fillColor=#aaaaaa;strokeColor=#ffffff;dashed=0;verticalLabelPosition=bottom;verticalAlign=top;align=center;html=1;fontSize=12;fontStyle=0;aspect=fixed;shape=mxgraph.aws4.resourceIcon;resIcon=mxgraph.aws4.codepipeline;" vertex="1" parent="1"><mxGeometry y="2150" width="50" height="50" as="geometry"/></mxCell><mxCell id="58" value="AssetsCodePipelineBuildbuildanddeployCodePipelineActionRoleE74C0347" style="outlineConnect=0;fontColor=#B3B3B3;gradientColor=#F54749;gradientDirection=north;fillColor=#C7131F;strokeColor=#ffffff;dashed=0;verticalLabelPosition=bottom;verticalAlign=top;align=center;html=1;fontSize=12;fontStyle=0;aspect=fixed;shape=mxgraph.aws4.resourceIcon;resIcon=mxgraph.aws4.role;" vertex="1" parent="1"><mxGeometry x="500" y="2250" width="50" height="50" as="geometry"/></mxCell><mxCell id="59" value="AssetsCodePipelineBuildbuildanddeployCodePipelineActionRoleDefaultPolicyA4768945" style="outlineConnect=0;fontColor=#B3B3B3;gradientColor=#F54749;gradientDirection=north;fillColor=#C7131F;strokeColor=#ffffff;dashed=0;verticalLabelPosition=bottom;verticalAlign=top;align=center;html=1;fontSize=12;fontStyle=0;aspect=fixed;shape=mxgraph.aws4.resourceIcon;resIcon=mxgraph.aws4.identity_and_access_management;" vertex="1" parent="1"><mxGeometry x="250" y="2250" width="50" height="50" as="geometry"/></mxCell><mxCell id="60" value="AssetsCodePipelineDeploytoECSDeployActionCodePipelineActionRole08608417" style="outlineConnect=0;fontColor=#B3B3B3;gradientColor=#F54749;gradientDirection=north;fillColor=#C7131F;strokeColor=#ffffff;dashed=0;verticalLabelPosition=bottom;verticalAlign=top;align=center;html=1;fontSize=12;fontStyle=0;aspect=fixed;shape=mxgraph.aws4.resourceIcon;resIcon=mxgraph.aws4.role;" vertex="1" parent="1"><mxGeometry x="500" y="1875" width="50" height="50" as="geometry"/></mxCell><mxCell id="61" value="AssetsCodePipelineDeploytoECSDeployActionCodePipelineActionRoleDefaultPolicyE62EC8F0" style="outlineConnect=0;fontColor=#B3B3B3;gradientColor=#F54749;gradientDirection=north;fillColor=#C7131F;strokeColor=#ffffff;dashed=0;verticalLabelPosition=bottom;verticalAlign=top;align=center;html=1;fontSize=12;fontStyle=0;aspect=fixed;shape=mxgraph.aws4.resourceIcon;resIcon=mxgraph.aws4.identity_and_access_management;" vertex="1" parent="1"><mxGeometry x="250" y="2000" width="50" height="50" as="geometry"/></mxCell><mxCell id="62" value="CDKMetadata" style="outlineConnect=0;fontColor=#B3B3B3;gradientColor=#aaaaaa;gradientDirection=north;fillColor=#aaaaaa;strokeColor=#ffffff;dashed=0;verticalLabelPosition=bottom;verticalAlign=top;align=center;html=1;fontSize=12;fontStyle=0;aspect=fixed;shape=mxgraph.aws4.resourceIcon;resIcon=mxgraph.aws4.cdk;" vertex="1" parent="1"><mxGeometry y="2450" width="50" height="50" as="geometry"/></mxCell><mxCell id="63" value="acm eu-west-1 223705206905&#xA;certificate/c3ec789f-ef9a-4533-ad92-b94dba2a4db8" style="outlineConnect=0;fontColor=#B3B3B3;gradientColor=#aaaaaa;gradientDirection=north;fillColor=#aaaaaa;strokeColor=#ffffff;dashed=0;verticalLabelPosition=bottom;verticalAlign=top;align=center;html=1;fontSize=12;fontStyle=0;aspect=fixed;shape=mxgraph.aws4.resourceIcon;resIcon=mxgraph.aws4.acm;" vertex="1" parent="1"><mxGeometry x="250" y="1100" width="50" height="50" as="geometry"/></mxCell><mxCell id="vpcA2121C38|vpcPublicSubnet1Subnet2E65531E" value="VpcId" style="edgeStyle=orthogonalEdgeStyle;rounded=1;orthogonalLoop=1;jettySize=auto;html=1;labelBackgroundColor=none;fontColor=#EA6B66;noEdgeStyle=1;orthogonal=1;" edge="1" parent="1" source="3" target="2"><mxGeometry relative="1" as="geometry"><Array as="points"><mxPoint x="562" y="300"/><mxPoint x="650" y="600"/><mxPoint x="900" y="600"/><mxPoint x="984" y="784.6153846153845"/></Array></mxGeometry></mxCell><mxCell id="vpcA2121C38|vpcPublicSubnet1RouteTable48A2DF9B" value="VpcId" style="edgeStyle=orthogonalEdgeStyle;rounded=1;orthogonalLoop=1;jettySize=auto;html=1;labelBackgroundColor=none;fontColor=#EA6B66;noEdgeStyle=1;orthogonal=1;" edge="1" parent="1" source="4" target="2"><mxGeometry relative="1" as="geometry"><Array as="points"><mxPoint x="312" y="75"/><mxPoint x="400" y="175"/><mxPoint x="650" y="175"/><mxPoint x="650" y="175"/><mxPoint x="900" y="175"/><mxPoint x="988" y="776.9230769230769"/></Array></mxGeometry></mxCell><mxCell id="vpcPublicSubnet1RouteTable48A2DF9B|vpcPublicSubnet1RouteTableAssociation5D3F4579" value="RouteTableId" style="edgeStyle=orthogonalEdgeStyle;rounded=1;orthogonalLoop=1;jettySize=auto;html=1;labelBackgroundColor=none;fontColor=#EA6B66;noEdgeStyle=1;orthogonal=1;" edge="1" parent="1" source="5" target="4"><mxGeometry relative="1" as="geometry"><Array as="points"><mxPoint x="62" y="47.5"/><mxPoint x="238" y="65"/></Array></mxGeometry></mxCell><mxCell id="vpcPublicSubnet1Subnet2E65531E|vpcPublicSubnet1RouteTableAssociation5D3F4579" value="SubnetId" style="edgeStyle=orthogonalEdgeStyle;rounded=1;orthogonalLoop=1;jettySize=auto;html=1;labelBackgroundColor=none;fontColor=#EA6B66;noEdgeStyle=1;orthogonal=1;" edge="1" parent="1" source="5" target="3"><mxGeometry relative="1" as="geometry"><Array as="points"><mxPoint x="62" y="27.5"/><mxPoint x="150"/><mxPoint x="400"/><mxPoint x="488" y="286.6666666666667"/></Array></mxGeometry></mxCell><mxCell id="vpcPublicSubnet1RouteTable48A2DF9B|vpcPublicSubnet1DefaultRoute10708846" value="RouteTableId" style="edgeStyle=orthogonalEdgeStyle;rounded=1;orthogonalLoop=1;jettySize=auto;html=1;labelBackgroundColor=none;fontColor=#EA6B66;noEdgeStyle=1;orthogonal=1;" edge="1" parent="1" source="6" target="4"><mxGeometry relative="1" as="geometry"><Array as="points"><mxPoint x="62" y="127.5"/><mxPoint x="238" y="85"/></Array></mxGeometry></mxCell><mxCell id="vpcIGWE57CBDCA|vpcPublicSubnet1DefaultRoute10708846" value="GatewayId" style="edgeStyle=orthogonalEdgeStyle;rounded=1;orthogonalLoop=1;jettySize=auto;html=1;labelBackgroundColor=none;fontColor=#EA6B66;noEdgeStyle=1;orthogonal=1;" edge="1" parent="1" source="6" target="21"><mxGeometry relative="1" as="geometry"><Array as="points"><mxPoint x="62" y="147.5"/><mxPoint x="238" y="161.66666666666666"/></Array></mxGeometry></mxCell><mxCell id="vpcPublicSubnet1Subnet2E65531E|vpcPublicSubnet1NATGateway9C16659E" value="SubnetId" style="edgeStyle=orthogonalEdgeStyle;rounded=1;orthogonalLoop=1;jettySize=auto;html=1;labelBackgroundColor=none;fontColor=#EA6B66;noEdgeStyle=1;orthogonal=1;" edge="1" parent="1" source="8" target="3"><mxGeometry relative="1" as="geometry"><Array as="points"><mxPoint x="312" y="415"/><mxPoint x="486" y="300"/></Array></mxGeometry></mxCell><mxCell id="vpcPublicSubnet1EIPDA49DCBE|vpcPublicSubnet1NATGateway9C16659E" value="AllocationId" style="edgeStyle=orthogonalEdgeStyle;rounded=1;orthogonalLoop=1;jettySize=auto;html=1;labelBackgroundColor=none;fontColor=#EA6B66;noEdgeStyle=1;orthogonal=1;" edge="1" parent="1" source="8" target="7"><mxGeometry relative="1" as="geometry"><Array as="points"><mxPoint x="312" y="435"/><mxPoint x="488" y="400"/></Array></mxGeometry></mxCell><mxCell id="vpcA2121C38|vpcPublicSubnet2Subnet009B674F" value="VpcId" style="edgeStyle=orthogonalEdgeStyle;rounded=1;orthogonalLoop=1;jettySize=auto;html=1;labelBackgroundColor=none;fontColor=#EA6B66;noEdgeStyle=1;orthogonal=1;" edge="1" parent="1" source="9" target="2"><mxGeometry relative="1" as="geometry"><Array as="points"><mxPoint x="562" y="650"/><mxPoint x="650" y="750"/><mxPoint x="900" y="750"/><mxPoint x="978" y="796.153846153846"/></Array></mxGeometry></mxCell><mxCell id="vpcA2121C38|vpcPublicSubnet2RouteTableEB40D4CB" value="VpcId" style="edgeStyle=orthogonalEdgeStyle;rounded=1;orthogonalLoop=1;jettySize=auto;html=1;labelBackgroundColor=none;fontColor=#EA6B66;noEdgeStyle=1;orthogonal=1;" edge="1" parent="1" source="10" target="2"><mxGeometry relative="1" as="geometry"><Array as="points"><mxPoint x="312" y="275"/><mxPoint x="400" y="225"/><mxPoint x="650" y="225"/><mxPoint x="650" y="225"/><mxPoint x="900" y="225"/><mxPoint x="986" y="780.7692307692307"/></Array></mxGeometry></mxCell><mxCell id="vpcPublicSubnet2RouteTableEB40D4CB|vpcPublicSubnet2RouteTableAssociation21F81B59" value="RouteTableId" style="edgeStyle=orthogonalEdgeStyle;rounded=1;orthogonalLoop=1;jettySize=auto;html=1;labelBackgroundColor=none;fontColor=#EA6B66;noEdgeStyle=1;orthogonal=1;" edge="1" parent="1" source="11" target="10"><mxGeometry relative="1" as="geometry"><Array as="points"><mxPoint x="62" y="327.5"/><mxPoint x="238" y="285"/></Array></mxGeometry></mxCell><mxCell id="vpcPublicSubnet2Subnet009B674F|vpcPublicSubnet2RouteTableAssociation21F81B59" value="SubnetId" style="edgeStyle=orthogonalEdgeStyle;rounded=1;orthogonalLoop=1;jettySize=auto;html=1;labelBackgroundColor=none;fontColor=#EA6B66;noEdgeStyle=1;orthogonal=1;" edge="1" parent="1" source="11" target="9"><mxGeometry relative="1" as="geometry"><Array as="points"><mxPoint x="62" y="347.5"/><mxPoint x="150" y="350"/><mxPoint x="400" y="350"/><mxPoint x="488" y="640"/></Array></mxGeometry></mxCell><mxCell id="vpcPublicSubnet2RouteTableEB40D4CB|vpcPublicSubnet2DefaultRouteA1EC0F60" value="RouteTableId" style="edgeStyle=orthogonalEdgeStyle;rounded=1;orthogonalLoop=1;jettySize=auto;html=1;labelBackgroundColor=none;fontColor=#EA6B66;noEdgeStyle=1;orthogonal=1;" edge="1" parent="1" source="12" target="10"><mxGeometry relative="1" as="geometry"><Array as="points"><mxPoint x="62" y="247.5"/><mxPoint x="238" y="265"/></Array></mxGeometry></mxCell><mxCell id="vpcIGWE57CBDCA|vpcPublicSubnet2DefaultRouteA1EC0F60" value="GatewayId" style="edgeStyle=orthogonalEdgeStyle;rounded=1;orthogonalLoop=1;jettySize=auto;html=1;labelBackgroundColor=none;fontColor=#EA6B66;noEdgeStyle=1;orthogonal=1;" edge="1" parent="1" source="12" target="21"><mxGeometry relative="1" as="geometry"><Array as="points"><mxPoint x="62" y="227.5"/><mxPoint x="236" y="175"/></Array></mxGeometry></mxCell><mxCell id="vpcA2121C38|vpcPrivateSubnet1Subnet934893E8" value="VpcId" style="edgeStyle=orthogonalEdgeStyle;rounded=1;orthogonalLoop=1;jettySize=auto;html=1;labelBackgroundColor=none;fontColor=#EA6B66;noEdgeStyle=1;orthogonal=1;" edge="1" parent="1" source="13" target="2"><mxGeometry relative="1" as="geometry"><Array as="points"><mxPoint x="812" y="875"/><mxPoint x="978" y="803.8461538461536"/></Array></mxGeometry></mxCell><mxCell id="vpcA2121C38|vpcPrivateSubnet1RouteTableB41A48CC" value="VpcId" style="edgeStyle=orthogonalEdgeStyle;rounded=1;orthogonalLoop=1;jettySize=auto;html=1;labelBackgroundColor=none;fontColor=#EA6B66;noEdgeStyle=1;orthogonal=1;" edge="1" parent="1" source="14" target="2"><mxGeometry relative="1" as="geometry"><Array as="points"><mxPoint x="312" y="525"/><mxPoint x="400" y="475"/><mxPoint x="650" y="475"/><mxPoint x="650" y="650"/><mxPoint x="900" y="650"/><mxPoint x="982" y="788.4615384615383"/></Array></mxGeometry></mxCell><mxCell id="vpcPrivateSubnet1RouteTableB41A48CC|vpcPrivateSubnet1RouteTableAssociation67945127" value="RouteTableId" style="edgeStyle=orthogonalEdgeStyle;rounded=1;orthogonalLoop=1;jettySize=auto;html=1;labelBackgroundColor=none;fontColor=#EA6B66;noEdgeStyle=1;orthogonal=1;" edge="1" parent="1" source="15" target="14"><mxGeometry relative="1" as="geometry"><Array as="points"><mxPoint x="62" y="665"/><mxPoint x="238" y="535"/></Array></mxGeometry></mxCell><mxCell id="vpcPrivateSubnet1Subnet934893E8|vpcPrivateSubnet1RouteTableAssociation67945127" value="SubnetId" style="edgeStyle=orthogonalEdgeStyle;rounded=1;orthogonalLoop=1;jettySize=auto;html=1;labelBackgroundColor=none;fontColor=#EA6B66;noEdgeStyle=1;orthogonal=1;" edge="1" parent="1" source="15" target="13"><mxGeometry relative="1" as="geometry"><Array as="points"><mxPoint x="62" y="685"/><mxPoint x="150" y="600"/><mxPoint x="400" y="600"/><mxPoint x="400" y="525"/><mxPoint x="650" y="525"/><mxPoint x="738" y="861.6666666666666"/></Array></mxGeometry></mxCell><mxCell id="vpcPrivateSubnet1RouteTableB41A48CC|vpcPrivateSubnet1DefaultRoute1AA8E2E5" value="RouteTableId" style="edgeStyle=orthogonalEdgeStyle;rounded=1;orthogonalLoop=1;jettySize=auto;html=1;labelBackgroundColor=none;fontColor=#EA6B66;noEdgeStyle=1;orthogonal=1;" edge="1" parent="1" source="16" target="14"><mxGeometry relative="1" as="geometry"><Array as="points"><mxPoint x="62" y="485"/><mxPoint x="238" y="515"/></Array></mxGeometry></mxCell><mxCell id="vpcPublicSubnet1NATGateway9C16659E|vpcPrivateSubnet1DefaultRoute1AA8E2E5" value="NatGatewayId" style="edgeStyle=orthogonalEdgeStyle;rounded=1;orthogonalLoop=1;jettySize=auto;html=1;labelBackgroundColor=none;fontColor=#EA6B66;noEdgeStyle=1;orthogonal=1;" edge="1" parent="1" source="16" target="8"><mxGeometry relative="1" as="geometry"><Array as="points"><mxPoint x="62" y="465"/><mxPoint x="238" y="415"/></Array></mxGeometry></mxCell><mxCell id="vpcA2121C38|vpcPrivateSubnet2Subnet7031C2BA" value="VpcId" style="edgeStyle=orthogonalEdgeStyle;rounded=1;orthogonalLoop=1;jettySize=auto;html=1;labelBackgroundColor=none;fontColor=#EA6B66;noEdgeStyle=1;orthogonal=1;" edge="1" parent="1" source="17" target="2"><mxGeometry relative="1" as="geometry"><Array as="points"><mxPoint x="812" y="1031.25"/><mxPoint x="982" y="811.5384615384612"/></Array></mxGeometry></mxCell><mxCell id="vpcA2121C38|vpcPrivateSubnet2RouteTable7280F23E" value="VpcId" style="edgeStyle=orthogonalEdgeStyle;rounded=1;orthogonalLoop=1;jettySize=auto;html=1;labelBackgroundColor=none;fontColor=#EA6B66;noEdgeStyle=1;orthogonal=1;" edge="1" parent="1" source="18" target="2"><mxGeometry relative="1" as="geometry"><Array as="points"><mxPoint x="312" y="675"/><mxPoint x="400" y="575"/><mxPoint x="650" y="575"/><mxPoint x="650" y="700"/><mxPoint x="900" y="700"/><mxPoint x="980" y="792.3076923076922"/></Array></mxGeometry></mxCell><mxCell id="vpcPrivateSubnet2RouteTable7280F23E|vpcPrivateSubnet2RouteTableAssociation007E94D3" value="RouteTableId" style="edgeStyle=orthogonalEdgeStyle;rounded=1;orthogonalLoop=1;jettySize=auto;html=1;labelBackgroundColor=none;fontColor=#EA6B66;noEdgeStyle=1;orthogonal=1;" edge="1" parent="1" source="19" target="18"><mxGeometry relative="1" as="geometry"><Array as="points"><mxPoint x="62" y="965"/><mxPoint x="238" y="685"/></Array></mxGeometry></mxCell><mxCell id="vpcPrivateSubnet2Subnet7031C2BA|vpcPrivateSubnet2RouteTableAssociation007E94D3" value="SubnetId" style="edgeStyle=orthogonalEdgeStyle;rounded=1;orthogonalLoop=1;jettySize=auto;html=1;labelBackgroundColor=none;fontColor=#EA6B66;noEdgeStyle=1;orthogonal=1;" edge="1" parent="1" source="19" target="17"><mxGeometry relative="1" as="geometry"><Array as="points"><mxPoint x="62" y="985"/><mxPoint x="150" y="950"/><mxPoint x="400" y="950"/><mxPoint x="400" y="1075"/><mxPoint x="650" y="1075"/><mxPoint x="736" y="1031.25"/></Array></mxGeometry></mxCell><mxCell id="vpcPrivateSubnet2RouteTable7280F23E|vpcPrivateSubnet2DefaultRouteB0E07F99" value="RouteTableId" style="edgeStyle=orthogonalEdgeStyle;rounded=1;orthogonalLoop=1;jettySize=auto;html=1;labelBackgroundColor=none;fontColor=#EA6B66;noEdgeStyle=1;orthogonal=1;" edge="1" parent="1" source="20" target="18"><mxGeometry relative="1" as="geometry"><Array as="points"><mxPoint x="62" y="585"/><mxPoint x="238" y="665"/></Array></mxGeometry></mxCell><mxCell id="vpcPublicSubnet1NATGateway9C16659E|vpcPrivateSubnet2DefaultRouteB0E07F99" value="NatGatewayId" style="edgeStyle=orthogonalEdgeStyle;rounded=1;orthogonalLoop=1;jettySize=auto;html=1;labelBackgroundColor=none;fontColor=#EA6B66;noEdgeStyle=1;orthogonal=1;" edge="1" parent="1" source="20" target="8"><mxGeometry relative="1" as="geometry"><Array as="points"><mxPoint x="62" y="565"/><mxPoint x="238" y="435"/></Array></mxGeometry></mxCell><mxCell id="vpcA2121C38|vpcVPCGW7984C166" value="VpcId" style="edgeStyle=orthogonalEdgeStyle;rounded=1;orthogonalLoop=1;jettySize=auto;html=1;labelBackgroundColor=none;fontColor=#EA6B66;noEdgeStyle=1;orthogonal=1;" edge="1" parent="1" source="22" target="2"><mxGeometry relative="1" as="geometry"><Array as="points"><mxPoint x="62" y="785"/><mxPoint x="150" y="750"/><mxPoint x="400" y="750"/><mxPoint x="400" y="725"/><mxPoint x="650" y="725"/><mxPoint x="650" y="800"/><mxPoint x="900" y="800"/><mxPoint x="976" y="799.9999999999998"/></Array></mxGeometry></mxCell><mxCell id="vpcIGWE57CBDCA|vpcVPCGW7984C166" value="InternetGatewayId" style="edgeStyle=orthogonalEdgeStyle;rounded=1;orthogonalLoop=1;jettySize=auto;html=1;labelBackgroundColor=none;fontColor=#EA6B66;noEdgeStyle=1;orthogonal=1;" edge="1" parent="1" source="22" target="21"><mxGeometry relative="1" as="geometry"><Array as="points"><mxPoint x="62" y="765"/><mxPoint x="238" y="188.33333333333334"/></Array></mxGeometry></mxCell><mxCell id="vpcPrivateSubnet1Subnet934893E8|InstanceSubnetGroupF2CBA54F" value="SubnetIds" style="edgeStyle=orthogonalEdgeStyle;rounded=1;orthogonalLoop=1;jettySize=auto;html=1;labelBackgroundColor=none;fontColor=#EA6B66;noEdgeStyle=1;orthogonal=1;" edge="1" parent="1" source="23" target="13"><mxGeometry relative="1" as="geometry"><Array as="points"><mxPoint x="562" y="890"/><mxPoint x="736" y="875"/></Array></mxGeometry></mxCell><mxCell id="vpcPrivateSubnet2Subnet7031C2BA|InstanceSubnetGroupF2CBA54F" value="SubnetIds" style="edgeStyle=orthogonalEdgeStyle;rounded=1;orthogonalLoop=1;jettySize=auto;html=1;labelBackgroundColor=none;fontColor=#EA6B66;noEdgeStyle=1;orthogonal=1;" edge="1" parent="1" source="23" target="17"><mxGeometry relative="1" as="geometry"><Array as="points"><mxPoint x="562" y="910"/><mxPoint x="738" y="1017.9166666666666"/></Array></mxGeometry></mxCell><mxCell id="vpcA2121C38|InstanceSecurityGroupB4E5FA83" value="VpcId" style="edgeStyle=orthogonalEdgeStyle;rounded=1;orthogonalLoop=1;jettySize=auto;html=1;labelBackgroundColor=none;fontColor=#EA6B66;noEdgeStyle=1;orthogonal=1;" edge="1" parent="1" source="24" target="2"><mxGeometry relative="1" as="geometry"><Array as="points"><mxPoint x="562" y="1000"/><mxPoint x="650" y="950"/><mxPoint x="900" y="950"/><mxPoint x="980" y="807.6923076923074"/></Array></mxGeometry></mxCell><mxCell id="InstanceSecret478E0A47|InstanceSecretAttachment83BEE581" value="SecretId" style="edgeStyle=orthogonalEdgeStyle;rounded=1;orthogonalLoop=1;jettySize=auto;html=1;labelBackgroundColor=none;fontColor=#EA6B66;noEdgeStyle=1;orthogonal=1;" edge="1" parent="1" source="26" target="25"><mxGeometry relative="1" as="geometry"><Array as="points"><mxPoint x="62" y="865"/><mxPoint x="150" y="800"/><mxPoint x="400" y="800"/><mxPoint x="488" y="790"/></Array></mxGeometry></mxCell><mxCell id="InstanceC1063A87|InstanceSecretAttachment83BEE581" value="TargetId" style="edgeStyle=orthogonalEdgeStyle;rounded=1;orthogonalLoop=1;jettySize=auto;html=1;labelBackgroundColor=none;fontColor=#EA6B66;noEdgeStyle=1;orthogonal=1;" edge="1" parent="1" source="26" target="27"><mxGeometry relative="1" as="geometry"><Array as="points"><mxPoint x="62" y="885"/><mxPoint x="238" y="875"/></Array></mxGeometry></mxCell><mxCell id="InstanceSubnetGroupF2CBA54F|InstanceC1063A87" value="DBSubnetGroupName" style="edgeStyle=orthogonalEdgeStyle;rounded=1;orthogonalLoop=1;jettySize=auto;html=1;labelBackgroundColor=none;fontColor=#EA6B66;noEdgeStyle=1;orthogonal=1;" edge="1" parent="1" source="27" target="23"><mxGeometry relative="1" as="geometry"><Array as="points"><mxPoint x="314" y="875"/><mxPoint x="488" y="900"/></Array></mxGeometry></mxCell><mxCell id="InstanceSecret478E0A47|InstanceC1063A87" value="MasterUsername&#xA;MasterUserPassword" style="edgeStyle=orthogonalEdgeStyle;rounded=1;orthogonalLoop=1;jettySize=auto;html=1;labelBackgroundColor=none;fontColor=#EA6B66;noEdgeStyle=1;orthogonal=1;" edge="1" parent="1" source="27" target="25"><mxGeometry relative="1" as="geometry"><Array as="points"><mxPoint x="312" y="861.6666666666666"/><mxPoint x="488" y="810"/></Array></mxGeometry></mxCell><mxCell id="InstanceSecurityGroupB4E5FA83|InstanceC1063A87" value="VPCSecurityGroups" style="edgeStyle=orthogonalEdgeStyle;rounded=1;orthogonalLoop=1;jettySize=auto;html=1;labelBackgroundColor=none;fontColor=#EA6B66;noEdgeStyle=1;orthogonal=1;" edge="1" parent="1" source="27" target="24"><mxGeometry relative="1" as="geometry"><Array as="points"><mxPoint x="312" y="888.3333333333334"/><mxPoint x="488" y="1000"/></Array></mxGeometry></mxCell><mxCell id="vpcPublicSubnet1Subnet2E65531E|LB8A12904C" value="Subnets" style="edgeStyle=orthogonalEdgeStyle;rounded=1;orthogonalLoop=1;jettySize=auto;html=1;labelBackgroundColor=none;fontColor=#EA6B66;noEdgeStyle=1;orthogonal=1;" edge="1" parent="1" source="28" target="3"><mxGeometry relative="1" as="geometry"><Array as="points"><mxPoint x="312" y="1011.6666666666666"/><mxPoint x="488" y="313.3333333333333"/></Array></mxGeometry></mxCell><mxCell id="vpcPublicSubnet2Subnet009B674F|LB8A12904C" value="Subnets" style="edgeStyle=orthogonalEdgeStyle;rounded=1;orthogonalLoop=1;jettySize=auto;html=1;labelBackgroundColor=none;fontColor=#EA6B66;noEdgeStyle=1;orthogonal=1;" edge="1" parent="1" source="28" target="9"><mxGeometry relative="1" as="geometry"><Array as="points"><mxPoint x="314" y="1025"/><mxPoint x="488" y="660"/></Array></mxGeometry></mxCell><mxCell id="LBSecurityGroup8A41EA2B|LB8A12904C" value="SecurityGroups" style="edgeStyle=orthogonalEdgeStyle;rounded=1;orthogonalLoop=1;jettySize=auto;html=1;labelBackgroundColor=none;fontColor=#EA6B66;noEdgeStyle=1;orthogonal=1;" edge="1" parent="1" source="28" target="29"><mxGeometry relative="1" as="geometry"><Array as="points"><mxPoint x="312" y="1038.3333333333333"/><mxPoint x="488" y="1136.6666666666667"/></Array></mxGeometry></mxCell><mxCell id="vpcA2121C38|LBSecurityGroup8A41EA2B" value="VpcId" style="edgeStyle=orthogonalEdgeStyle;rounded=1;orthogonalLoop=1;jettySize=auto;html=1;labelBackgroundColor=none;fontColor=#EA6B66;noEdgeStyle=1;orthogonal=1;" edge="1" parent="1" source="29" target="2"><mxGeometry relative="1" as="geometry"><Array as="points"><mxPoint x="562" y="1150"/><mxPoint x="650" y="1106.25"/><mxPoint x="900" y="1106.25"/><mxPoint x="984" y="815.384615384615"/></Array></mxGeometry></mxCell><mxCell id="LBSecurityGroup8A41EA2B|LBSecurityGrouptoSpringPipelinefargateServiceSecurityGroupB09D3B188080EBA8DEB8" value="GroupId" style="edgeStyle=orthogonalEdgeStyle;rounded=1;orthogonalLoop=1;jettySize=auto;html=1;labelBackgroundColor=none;fontColor=#EA6B66;noEdgeStyle=1;orthogonal=1;" edge="1" parent="1" source="30" target="29"><mxGeometry relative="1" as="geometry"><Array as="points"><mxPoint x="312" y="1215"/><mxPoint x="486" y="1150"/></Array></mxGeometry></mxCell><mxCell id="fargateServiceSecurityGroup030B57B1|LBSecurityGrouptoSpringPipelinefargateServiceSecurityGroupB09D3B188080EBA8DEB8" value="DestinationSecurityGroupId" style="edgeStyle=orthogonalEdgeStyle;rounded=1;orthogonalLoop=1;jettySize=auto;html=1;labelBackgroundColor=none;fontColor=#EA6B66;noEdgeStyle=1;orthogonal=1;" edge="1" parent="1" source="30" target="42"><mxGeometry relative="1" as="geometry"><Array as="points"><mxPoint x="312" y="1235"/><mxPoint x="400" y="1225"/><mxPoint x="650" y="1225"/><mxPoint x="738" y="1167.9166666666667"/></Array></mxGeometry></mxCell><mxCell id="LBPublicListenerECSGroupD6A32205|LBPublicListener6E1F3D94" value="TargetGroupArn" style="edgeStyle=orthogonalEdgeStyle;rounded=1;orthogonalLoop=1;jettySize=auto;html=1;labelBackgroundColor=none;fontColor=#EA6B66;noEdgeStyle=1;orthogonal=1;" edge="1" parent="1" source="31" target="32"><mxGeometry relative="1" as="geometry"><Array as="points"><mxPoint x="62" y="1288.3333333333333"/><mxPoint x="150" y="1400"/><mxPoint x="400" y="1400"/><mxPoint x="400" y="1325"/><mxPoint x="650" y="1325"/><mxPoint x="738" y="1271.25"/></Array></mxGeometry></mxCell><mxCell id="LB8A12904C|LBPublicListener6E1F3D94" value="LoadBalancerArn" style="edgeStyle=orthogonalEdgeStyle;rounded=1;orthogonalLoop=1;jettySize=auto;html=1;labelBackgroundColor=none;fontColor=#EA6B66;noEdgeStyle=1;orthogonal=1;" edge="1" parent="1" source="31" target="28"><mxGeometry relative="1" as="geometry"><Array as="points"><mxPoint x="62" y="1261.6666666666667"/><mxPoint x="238" y="1038.3333333333333"/></Array></mxGeometry></mxCell><mxCell id="acm eu-west-1 223705206905&#xA;certificate/c3ec789f-ef9a-4533-ad92-b94dba2a4db8|LBPublicListener6E1F3D94" value="CertificateArn" style="edgeStyle=orthogonalEdgeStyle;rounded=1;orthogonalLoop=1;jettySize=auto;html=1;labelBackgroundColor=none;fontColor=#EA6B66;noEdgeStyle=1;orthogonal=1;" edge="1" parent="1" source="31" target="63"><mxGeometry relative="1" as="geometry"><Array as="points"><mxPoint x="64" y="1275"/><mxPoint x="238" y="1125"/></Array></mxGeometry></mxCell><mxCell id="vpcA2121C38|LBPublicListenerECSGroupD6A32205" value="VpcId" style="edgeStyle=orthogonalEdgeStyle;rounded=1;orthogonalLoop=1;jettySize=auto;html=1;labelBackgroundColor=none;fontColor=#EA6B66;noEdgeStyle=1;orthogonal=1;" edge="1" parent="1" source="32" target="2"><mxGeometry relative="1" as="geometry"><Array as="points"><mxPoint x="812" y="1281.25"/><mxPoint x="988" y="823.0769230769226"/></Array></mxGeometry></mxCell><mxCell id="LB8A12904C|LBPublicRedirectListener582DF3B9" value="LoadBalancerArn" style="edgeStyle=orthogonalEdgeStyle;rounded=1;orthogonalLoop=1;jettySize=auto;html=1;labelBackgroundColor=none;fontColor=#EA6B66;noEdgeStyle=1;orthogonal=1;" edge="1" parent="1" source="33" target="28"><mxGeometry relative="1" as="geometry"><Array as="points"><mxPoint x="62" y="1075"/><mxPoint x="238" y="1011.6666666666666"/></Array></mxGeometry></mxCell><mxCell id="taskDefcontainerLogGroup46D582FF|taskDef43A87EA0" value="awslogs-group" style="edgeStyle=orthogonalEdgeStyle;rounded=1;orthogonalLoop=1;jettySize=auto;html=1;labelBackgroundColor=none;fontColor=#EA6B66;noEdgeStyle=1;orthogonal=1;" edge="1" parent="1" source="36" target="39"><mxGeometry relative="1" as="geometry"><Array as="points"><mxPoint x="812" y="1467.9166666666667"/><mxPoint x="988" y="1310"/></Array></mxGeometry></mxCell><mxCell id="taskDefExecutionRole9295A8C0|taskDef43A87EA0" value="ExecutionRoleArn" style="edgeStyle=orthogonalEdgeStyle;rounded=1;orthogonalLoop=1;jettySize=auto;html=1;labelBackgroundColor=none;fontColor=#EA6B66;noEdgeStyle=1;orthogonal=1;" edge="1" parent="1" source="36" target="37"><mxGeometry relative="1" as="geometry"><Array as="points"><mxPoint x="814" y="1481.25"/><mxPoint x="988" y="1410"/></Array></mxGeometry></mxCell><mxCell id="ecsTaskExecutionRole34F54B99|taskDef43A87EA0" value="TaskRoleArn" style="edgeStyle=orthogonalEdgeStyle;rounded=1;orthogonalLoop=1;jettySize=auto;html=1;labelBackgroundColor=none;fontColor=#EA6B66;noEdgeStyle=1;orthogonal=1;" edge="1" parent="1" source="36" target="35"><mxGeometry relative="1" as="geometry"><Array as="points"><mxPoint x="812" y="1494.5833333333333"/><mxPoint x="988" y="1500"/></Array></mxGeometry></mxCell><mxCell id="taskDefExecutionRole9295A8C0|taskDefExecutionRoleDefaultPolicy5FB63CF7" value="Roles" style="edgeStyle=orthogonalEdgeStyle;rounded=1;orthogonalLoop=1;jettySize=auto;html=1;labelBackgroundColor=none;fontColor=#EA6B66;noEdgeStyle=1;orthogonal=1;" edge="1" parent="1" source="38" target="37"><mxGeometry relative="1" as="geometry"><Array as="points"><mxPoint x="812" y="1391.25"/><mxPoint x="988" y="1390"/></Array></mxGeometry></mxCell><mxCell id="taskDefcontainerLogGroup46D582FF|taskDefExecutionRoleDefaultPolicy5FB63CF7" value="Resource" style="edgeStyle=orthogonalEdgeStyle;rounded=1;orthogonalLoop=1;jettySize=auto;html=1;labelBackgroundColor=none;fontColor=#EA6B66;noEdgeStyle=1;orthogonal=1;" edge="1" parent="1" source="38" target="39"><mxGeometry relative="1" as="geometry"><Array as="points"><mxPoint x="812" y="1371.25"/><mxPoint x="988" y="1290"/></Array></mxGeometry></mxCell><mxCell id="LB8A12904C|fargateServiceDNS5EF1DE4A" value="DNSName&#xA;HostedZoneId" style="edgeStyle=orthogonalEdgeStyle;rounded=1;orthogonalLoop=1;jettySize=auto;html=1;labelBackgroundColor=none;fontColor=#EA6B66;noEdgeStyle=1;orthogonal=1;" edge="1" parent="1" source="40" target="28"><mxGeometry relative="1" as="geometry"><Array as="points"><mxPoint x="62" y="1175"/><mxPoint x="236" y="1025"/></Array></mxGeometry></mxCell><mxCell id="cluster611F8AFF|fargateService93A22105" value="Cluster" style="edgeStyle=orthogonalEdgeStyle;rounded=1;orthogonalLoop=1;jettySize=auto;html=1;labelBackgroundColor=none;fontColor=#EA6B66;noEdgeStyle=1;orthogonal=1;" edge="1" parent="1" source="41" target="34"><mxGeometry relative="1" as="geometry"><Array as="points"><mxPoint x="562" y="1416.666666666667"/><mxPoint x="738" y="1565.25"/></Array></mxGeometry></mxCell><mxCell id="LBPublicListenerECSGroupD6A32205|fargateService93A22105" value="TargetGroupArn" style="edgeStyle=orthogonalEdgeStyle;rounded=1;orthogonalLoop=1;jettySize=auto;html=1;labelBackgroundColor=none;fontColor=#EA6B66;noEdgeStyle=1;orthogonal=1;" edge="1" parent="1" source="41" target="32"><mxGeometry relative="1" as="geometry"><Array as="points"><mxPoint x="566" y="1403.3333333333335"/><mxPoint x="738" y="1291.25"/></Array></mxGeometry></mxCell><mxCell id="vpcPrivateSubnet1Subnet934893E8|fargateService93A22105" value="Subnets" style="edgeStyle=orthogonalEdgeStyle;rounded=1;orthogonalLoop=1;jettySize=auto;html=1;labelBackgroundColor=none;fontColor=#EA6B66;noEdgeStyle=1;orthogonal=1;" edge="1" parent="1" source="41" target="13"><mxGeometry relative="1" as="geometry"><Array as="points"><mxPoint x="562" y="1383.3333333333333"/><mxPoint x="738" y="888.3333333333334"/></Array></mxGeometry></mxCell><mxCell id="vpcPrivateSubnet2Subnet7031C2BA|fargateService93A22105" value="Subnets" style="edgeStyle=orthogonalEdgeStyle;rounded=1;orthogonalLoop=1;jettySize=auto;html=1;labelBackgroundColor=none;fontColor=#EA6B66;noEdgeStyle=1;orthogonal=1;" edge="1" parent="1" source="41" target="17"><mxGeometry relative="1" as="geometry"><Array as="points"><mxPoint x="564" y="1390"/><mxPoint x="738" y="1044.5833333333333"/></Array></mxGeometry></mxCell><mxCell id="taskDef43A87EA0|fargateService93A22105" value="TaskDefinition" style="edgeStyle=orthogonalEdgeStyle;rounded=1;orthogonalLoop=1;jettySize=auto;html=1;labelBackgroundColor=none;fontColor=#EA6B66;noEdgeStyle=1;orthogonal=1;" edge="1" parent="1" source="41" target="36"><mxGeometry relative="1" as="geometry"><Array as="points"><mxPoint x="564" y="1410.0000000000002"/><mxPoint x="738" y="1481.25"/></Array></mxGeometry></mxCell><mxCell id="fargateServiceSecurityGroup030B57B1|fargateService93A22105" value="SecurityGroups" style="edgeStyle=orthogonalEdgeStyle;rounded=1;orthogonalLoop=1;jettySize=auto;html=1;labelBackgroundColor=none;fontColor=#EA6B66;noEdgeStyle=1;orthogonal=1;" edge="1" parent="1" source="41" target="42"><mxGeometry relative="1" as="geometry"><Array as="points"><mxPoint x="566" y="1396.6666666666667"/><mxPoint x="738" y="1194.5833333333333"/></Array></mxGeometry></mxCell><mxCell id="vpcA2121C38|fargateServiceSecurityGroup030B57B1" value="VpcId" style="edgeStyle=orthogonalEdgeStyle;rounded=1;orthogonalLoop=1;jettySize=auto;html=1;labelBackgroundColor=none;fontColor=#EA6B66;noEdgeStyle=1;orthogonal=1;" edge="1" parent="1" source="42" target="2"><mxGeometry relative="1" as="geometry"><Array as="points"><mxPoint x="812" y="1181.25"/><mxPoint x="986" y="819.2307692307688"/></Array></mxGeometry></mxCell><mxCell id="fargateServiceSecurityGroup030B57B1|fargateServiceSecurityGroupfromSpringPipelineLBSecurityGroup7F9ABB848080FBCB9B28" value="GroupId" style="edgeStyle=orthogonalEdgeStyle;rounded=1;orthogonalLoop=1;jettySize=auto;html=1;labelBackgroundColor=none;fontColor=#EA6B66;noEdgeStyle=1;orthogonal=1;" edge="1" parent="1" source="43" target="42"><mxGeometry relative="1" as="geometry"><Array as="points"><mxPoint x="312" y="1335"/><mxPoint x="400" y="1275"/><mxPoint x="650" y="1275"/><mxPoint x="736" y="1181.25"/></Array></mxGeometry></mxCell><mxCell id="LBSecurityGroup8A41EA2B|fargateServiceSecurityGroupfromSpringPipelineLBSecurityGroup7F9ABB848080FBCB9B28" value="SourceSecurityGroupId" style="edgeStyle=orthogonalEdgeStyle;rounded=1;orthogonalLoop=1;jettySize=auto;html=1;labelBackgroundColor=none;fontColor=#EA6B66;noEdgeStyle=1;orthogonal=1;" edge="1" parent="1" source="43" target="29"><mxGeometry relative="1" as="geometry"><Array as="points"><mxPoint x="312" y="1315"/><mxPoint x="488" y="1163.3333333333333"/></Array></mxGeometry></mxCell><mxCell id="cluster611F8AFF|fargateServiceTaskCountTarget4289FD73" value="ResourceId" style="edgeStyle=orthogonalEdgeStyle;rounded=1;orthogonalLoop=1;jettySize=auto;html=1;labelBackgroundColor=none;fontColor=#EA6B66;noEdgeStyle=1;orthogonal=1;" edge="1" parent="1" source="44" target="34"><mxGeometry relative="1" as="geometry"><Array as="points"><mxPoint x="312" y="1485"/><mxPoint x="400" y="1475"/><mxPoint x="650" y="1475"/><mxPoint x="736" y="1573.25"/></Array></mxGeometry></mxCell><mxCell id="fargateService93A22105|fargateServiceTaskCountTarget4289FD73" value="ResourceId" style="edgeStyle=orthogonalEdgeStyle;rounded=1;orthogonalLoop=1;jettySize=auto;html=1;labelBackgroundColor=none;fontColor=#EA6B66;noEdgeStyle=1;orthogonal=1;" edge="1" parent="1" source="44" target="41"><mxGeometry relative="1" as="geometry"><Array as="points"><mxPoint x="312" y="1465"/><mxPoint x="488" y="1390"/></Array></mxGeometry></mxCell><mxCell id="fargateServiceTaskCountTarget4289FD73|fargateServiceTaskCountTargetCpuScaling014C4F36" value="ScalingTargetId" style="edgeStyle=orthogonalEdgeStyle;rounded=1;orthogonalLoop=1;jettySize=auto;html=1;labelBackgroundColor=none;fontColor=#EA6B66;noEdgeStyle=1;orthogonal=1;" edge="1" parent="1" source="45" target="44"><mxGeometry relative="1" as="geometry"><Array as="points"><mxPoint x="62" y="1475"/><mxPoint x="238" y="1475"/></Array></mxGeometry></mxCell><mxCell id="projectC7BA6BD1|projectRoleDefaultPolicy3F10B507" value="Resource" style="edgeStyle=orthogonalEdgeStyle;rounded=1;orthogonalLoop=1;jettySize=auto;html=1;labelBackgroundColor=none;fontColor=#EA6B66;noEdgeStyle=1;orthogonal=1;" edge="1" parent="1" source="48" target="49"><mxGeometry relative="1" as="geometry"><Array as="points"><mxPoint x="312" y="1891"/><mxPoint x="488" y="2036.6666666666667"/></Array></mxGeometry></mxCell><mxCell id="projectRole1577EB66|projectRoleDefaultPolicy3F10B507" value="Roles" style="edgeStyle=orthogonalEdgeStyle;rounded=1;orthogonalLoop=1;jettySize=auto;html=1;labelBackgroundColor=none;fontColor=#EA6B66;noEdgeStyle=1;orthogonal=1;" edge="1" parent="1" source="48" target="47"><mxGeometry relative="1" as="geometry"><Array as="points"><mxPoint x="314" y="1867"/><mxPoint x="400" y="1575"/><mxPoint x="650" y="1575"/><mxPoint x="738" y="1690"/></Array></mxGeometry></mxCell><mxCell id="PipelineArtifactsBucketC4BB9BE3|projectRoleDefaultPolicy3F10B507" value="Resource" style="edgeStyle=orthogonalEdgeStyle;rounded=1;orthogonalLoop=1;jettySize=auto;html=1;labelBackgroundColor=none;fontColor=#EA6B66;noEdgeStyle=1;orthogonal=1;" edge="1" parent="1" source="48" target="51"><mxGeometry relative="1" as="geometry"><Array as="points"><mxPoint x="316" y="1875"/><mxPoint x="484" y="1650"/></Array></mxGeometry></mxCell><mxCell id="EcrRepoBB83A592|projectRoleDefaultPolicy3F10B507" value="Resource" style="edgeStyle=orthogonalEdgeStyle;rounded=1;orthogonalLoop=1;jettySize=auto;html=1;labelBackgroundColor=none;fontColor=#EA6B66;noEdgeStyle=1;orthogonal=1;" edge="1" parent="1" source="48" target="46"><mxGeometry relative="1" as="geometry"><Array as="points"><mxPoint x="314" y="1883"/><mxPoint x="400" y="1725"/><mxPoint x="650" y="1725"/><mxPoint x="738" y="1877.5"/></Array></mxGeometry></mxCell><mxCell id="cluster611F8AFF|projectRoleDefaultPolicy3F10B507" value="Resource" style="edgeStyle=orthogonalEdgeStyle;rounded=1;orthogonalLoop=1;jettySize=auto;html=1;labelBackgroundColor=none;fontColor=#EA6B66;noEdgeStyle=1;orthogonal=1;" edge="1" parent="1" source="48" target="34"><mxGeometry relative="1" as="geometry"><Array as="points"><mxPoint x="312" y="1859"/><mxPoint x="400" y="1525"/><mxPoint x="650" y="1525"/><mxPoint x="734" y="1581.25"/></Array></mxGeometry></mxCell><mxCell id="cluster611F8AFF|projectC7BA6BD1" value="Variable" style="edgeStyle=orthogonalEdgeStyle;rounded=1;orthogonalLoop=1;jettySize=auto;html=1;labelBackgroundColor=none;fontColor=#EA6B66;noEdgeStyle=1;orthogonal=1;" edge="1" parent="1" source="49" target="34"><mxGeometry relative="1" as="geometry"><Array as="points"><mxPoint x="562" y="2036.6666666666667"/><mxPoint x="738" y="1597.25"/></Array></mxGeometry></mxCell><mxCell id="EcrRepoBB83A592|projectC7BA6BD1" value="Variable" style="edgeStyle=orthogonalEdgeStyle;rounded=1;orthogonalLoop=1;jettySize=auto;html=1;labelBackgroundColor=none;fontColor=#EA6B66;noEdgeStyle=1;orthogonal=1;" edge="1" parent="1" source="49" target="46"><mxGeometry relative="1" as="geometry"><Array as="points"><mxPoint x="562" y="2063.3333333333335"/><mxPoint x="738" y="1897.5"/></Array></mxGeometry></mxCell><mxCell id="projectRole1577EB66|projectC7BA6BD1" value="ServiceRole" style="edgeStyle=orthogonalEdgeStyle;rounded=1;orthogonalLoop=1;jettySize=auto;html=1;labelBackgroundColor=none;fontColor=#EA6B66;noEdgeStyle=1;orthogonal=1;" edge="1" parent="1" source="49" target="47"><mxGeometry relative="1" as="geometry"><Array as="points"><mxPoint x="564" y="2050"/><mxPoint x="738" y="1710"/></Array></mxGeometry></mxCell><mxCell id="CodeBuildRole728CBADE|CodeBuildRoleDefaultPolicy829527DE" value="Roles" style="edgeStyle=orthogonalEdgeStyle;rounded=1;orthogonalLoop=1;jettySize=auto;html=1;labelBackgroundColor=none;fontColor=#EA6B66;noEdgeStyle=1;orthogonal=1;" edge="1" parent="1" source="53" target="52"><mxGeometry relative="1" as="geometry"><Array as="points"><mxPoint x="62" y="1636.6666666666667"/><mxPoint x="238" y="1575"/></Array></mxGeometry></mxCell><mxCell id="SourceAssetBucket61A8AEF8|CodeBuildRoleDefaultPolicy829527DE" value="Resource" style="edgeStyle=orthogonalEdgeStyle;rounded=1;orthogonalLoop=1;jettySize=auto;html=1;labelBackgroundColor=none;fontColor=#EA6B66;noEdgeStyle=1;orthogonal=1;" edge="1" parent="1" source="53" target="50"><mxGeometry relative="1" as="geometry"><Array as="points"><mxPoint x="62" y="1663.3333333333333"/><mxPoint x="238" y="1715"/></Array></mxGeometry></mxCell><mxCell id="PipelineArtifactsBucketC4BB9BE3|CodeBuildRoleDefaultPolicy829527DE" value="Resource" style="edgeStyle=orthogonalEdgeStyle;rounded=1;orthogonalLoop=1;jettySize=auto;html=1;labelBackgroundColor=none;fontColor=#EA6B66;noEdgeStyle=1;orthogonal=1;" edge="1" parent="1" source="53" target="51"><mxGeometry relative="1" as="geometry"><Array as="points"><mxPoint x="64" y="1650"/><mxPoint x="150" y="1650"/><mxPoint x="400" y="1650"/><mxPoint x="488" y="1634"/></Array></mxGeometry></mxCell><mxCell id="CodePipelineRoleB31C27BE|CodePipelineRoleDefaultPolicy2731C56D" value="Roles" style="edgeStyle=orthogonalEdgeStyle;rounded=1;orthogonalLoop=1;jettySize=auto;html=1;labelBackgroundColor=none;fontColor=#EA6B66;noEdgeStyle=1;orthogonal=1;" edge="1" parent="1" source="55" target="54"><mxGeometry relative="1" as="geometry"><Array as="points"><mxPoint x="66" y="1875"/><mxPoint x="150" y="1950"/><mxPoint x="400" y="1950"/><mxPoint x="488" y="1790"/></Array></mxGeometry></mxCell><mxCell id="SourceAssetBucket61A8AEF8|CodePipelineRoleDefaultPolicy2731C56D" value="Resource" style="edgeStyle=orthogonalEdgeStyle;rounded=1;orthogonalLoop=1;jettySize=auto;html=1;labelBackgroundColor=none;fontColor=#EA6B66;noEdgeStyle=1;orthogonal=1;" edge="1" parent="1" source="55" target="50"><mxGeometry relative="1" as="geometry"><Array as="points"><mxPoint x="62" y="1859"/><mxPoint x="238" y="1735"/></Array></mxGeometry></mxCell><mxCell id="PipelineArtifactsBucketC4BB9BE3|CodePipelineRoleDefaultPolicy2731C56D" value="Resource" style="edgeStyle=orthogonalEdgeStyle;rounded=1;orthogonalLoop=1;jettySize=auto;html=1;labelBackgroundColor=none;fontColor=#EA6B66;noEdgeStyle=1;orthogonal=1;" edge="1" parent="1" source="55" target="51"><mxGeometry relative="1" as="geometry"><Array as="points"><mxPoint x="64" y="1867"/><mxPoint x="150" y="1800"/><mxPoint x="400" y="1800"/><mxPoint x="486" y="1642"/></Array></mxGeometry></mxCell><mxCell id="AssetsCodePipelineBuildbuildanddeployCodePipelineActionRoleE74C0347|CodePipelineRoleDefaultPolicy2731C56D" value="Resource" style="edgeStyle=orthogonalEdgeStyle;rounded=1;orthogonalLoop=1;jettySize=auto;html=1;labelBackgroundColor=none;fontColor=#EA6B66;noEdgeStyle=1;orthogonal=1;" edge="1" parent="1" source="55" target="58"><mxGeometry relative="1" as="geometry"><Array as="points"><mxPoint x="62" y="1891"/><mxPoint x="150" y="2350"/><mxPoint x="400" y="2350"/><mxPoint x="488" y="2288.3333333333335"/></Array></mxGeometry></mxCell><mxCell id="AssetsCodePipelineDeploytoECSDeployActionCodePipelineActionRole08608417|CodePipelineRoleDefaultPolicy2731C56D" value="Resource" style="edgeStyle=orthogonalEdgeStyle;rounded=1;orthogonalLoop=1;jettySize=auto;html=1;labelBackgroundColor=none;fontColor=#EA6B66;noEdgeStyle=1;orthogonal=1;" edge="1" parent="1" source="55" target="60"><mxGeometry relative="1" as="geometry"><Array as="points"><mxPoint x="64" y="1883"/><mxPoint x="150" y="2100"/><mxPoint x="400" y="2100"/><mxPoint x="486" y="1900"/></Array></mxGeometry></mxCell><mxCell id="projectC7BA6BD1|AssetsCodePipelineC9CF3FAA" value="ProjectName" style="edgeStyle=orthogonalEdgeStyle;rounded=1;orthogonalLoop=1;jettySize=auto;html=1;labelBackgroundColor=none;fontColor=#EA6B66;noEdgeStyle=1;orthogonal=1;" edge="1" parent="1" source="56" target="49"><mxGeometry relative="1" as="geometry"><Array as="points"><mxPoint x="314" y="2189.285714285715"/><mxPoint x="486" y="2050"/></Array></mxGeometry></mxCell><mxCell id="cluster611F8AFF|AssetsCodePipelineC9CF3FAA" value="ClusterName" style="edgeStyle=orthogonalEdgeStyle;rounded=1;orthogonalLoop=1;jettySize=auto;html=1;labelBackgroundColor=none;fontColor=#EA6B66;noEdgeStyle=1;orthogonal=1;" edge="1" parent="1" source="56" target="34"><mxGeometry relative="1" as="geometry"><Array as="points"><mxPoint x="316" y="2182.142857142858"/><mxPoint x="400" y="1975"/><mxPoint x="650" y="1975"/><mxPoint x="736" y="1589.25"/></Array></mxGeometry></mxCell><mxCell id="PipelineArtifactsBucketC4BB9BE3|AssetsCodePipelineC9CF3FAA" value="Location" style="edgeStyle=orthogonalEdgeStyle;rounded=1;orthogonalLoop=1;jettySize=auto;html=1;labelBackgroundColor=none;fontColor=#EA6B66;noEdgeStyle=1;orthogonal=1;" edge="1" parent="1" source="56" target="51"><mxGeometry relative="1" as="geometry"><Array as="points"><mxPoint x="314" y="2160.714285714286"/><mxPoint x="488" y="1666"/></Array></mxGeometry></mxCell><mxCell id="CodePipelineRoleB31C27BE|AssetsCodePipelineC9CF3FAA" value="RoleArn" style="edgeStyle=orthogonalEdgeStyle;rounded=1;orthogonalLoop=1;jettySize=auto;html=1;labelBackgroundColor=none;fontColor=#EA6B66;noEdgeStyle=1;orthogonal=1;" edge="1" parent="1" source="56" target="54"><mxGeometry relative="1" as="geometry"><Array as="points"><mxPoint x="316" y="2167.857142857143"/><mxPoint x="488" y="1810"/></Array></mxGeometry></mxCell><mxCell id="AssetsCodePipelineBuildbuildanddeployCodePipelineActionRoleE74C0347|AssetsCodePipelineC9CF3FAA" value="RoleArn" style="edgeStyle=orthogonalEdgeStyle;rounded=1;orthogonalLoop=1;jettySize=auto;html=1;labelBackgroundColor=none;fontColor=#EA6B66;noEdgeStyle=1;orthogonal=1;" edge="1" parent="1" source="56" target="58"><mxGeometry relative="1" as="geometry"><Array as="points"><mxPoint x="312" y="2196.4285714285725"/><mxPoint x="488" y="2261.6666666666665"/></Array></mxGeometry></mxCell><mxCell id="fargateService93A22105|AssetsCodePipelineC9CF3FAA" value="ServiceName" style="edgeStyle=orthogonalEdgeStyle;rounded=1;orthogonalLoop=1;jettySize=auto;html=1;labelBackgroundColor=none;fontColor=#EA6B66;noEdgeStyle=1;orthogonal=1;" edge="1" parent="1" source="56" target="41"><mxGeometry relative="1" as="geometry"><Array as="points"><mxPoint x="312" y="2153.5714285714284"/><mxPoint x="488" y="1410"/></Array></mxGeometry></mxCell><mxCell id="AssetsCodePipelineDeploytoECSDeployActionCodePipelineActionRole08608417|AssetsCodePipelineC9CF3FAA" value="RoleArn" style="edgeStyle=orthogonalEdgeStyle;rounded=1;orthogonalLoop=1;jettySize=auto;html=1;labelBackgroundColor=none;fontColor=#EA6B66;noEdgeStyle=1;orthogonal=1;" edge="1" parent="1" source="56" target="60"><mxGeometry relative="1" as="geometry"><Array as="points"><mxPoint x="318" y="2175.0000000000005"/><mxPoint x="488" y="1913.3333333333333"/></Array></mxGeometry></mxCell><mxCell id="AssetsCodePipelineC9CF3FAA|AssetsCodePipelineSourceGitHubSourceWebhookResource6EE4E222" value="TargetPipeline" style="edgeStyle=orthogonalEdgeStyle;rounded=1;orthogonalLoop=1;jettySize=auto;html=1;labelBackgroundColor=none;fontColor=#EA6B66;noEdgeStyle=1;orthogonal=1;" edge="1" parent="1" source="57" target="56"><mxGeometry relative="1" as="geometry"><Array as="points"><mxPoint x="62" y="2175"/><mxPoint x="238" y="2175"/></Array></mxGeometry></mxCell><mxCell id="AssetsCodePipelineBuildbuildanddeployCodePipelineActionRoleE74C0347|AssetsCodePipelineBuildbuildanddeployCodePipelineActionRoleDefaultPolicyA4768945" value="Roles" style="edgeStyle=orthogonalEdgeStyle;rounded=1;orthogonalLoop=1;jettySize=auto;html=1;labelBackgroundColor=none;fontColor=#EA6B66;noEdgeStyle=1;orthogonal=1;" edge="1" parent="1" source="59" target="58"><mxGeometry relative="1" as="geometry"><Array as="points"><mxPoint x="312" y="2285"/><mxPoint x="486" y="2275"/></Array></mxGeometry></mxCell><mxCell id="projectC7BA6BD1|AssetsCodePipelineBuildbuildanddeployCodePipelineActionRoleDefaultPolicyA4768945" value="Resource" style="edgeStyle=orthogonalEdgeStyle;rounded=1;orthogonalLoop=1;jettySize=auto;html=1;labelBackgroundColor=none;fontColor=#EA6B66;noEdgeStyle=1;orthogonal=1;" edge="1" parent="1" source="59" target="49"><mxGeometry relative="1" as="geometry"><Array as="points"><mxPoint x="312" y="2265"/><mxPoint x="488" y="2063.3333333333335"/></Array></mxGeometry></mxCell><mxCell id="AssetsCodePipelineDeploytoECSDeployActionCodePipelineActionRole08608417|AssetsCodePipelineDeploytoECSDeployActionCodePipelineActionRoleDefaultPolicyE62EC8F0" value="Roles" style="edgeStyle=orthogonalEdgeStyle;rounded=1;orthogonalLoop=1;jettySize=auto;html=1;labelBackgroundColor=none;fontColor=#EA6B66;noEdgeStyle=1;orthogonal=1;" edge="1" parent="1" source="61" target="60"><mxGeometry relative="1" as="geometry"><Array as="points"><mxPoint x="312" y="2035"/><mxPoint x="488" y="1886.6666666666667"/></Array></mxGeometry></mxCell><mxCell id="PipelineArtifactsBucketC4BB9BE3|AssetsCodePipelineDeploytoECSDeployActionCodePipelineActionRoleDefaultPolicyE62EC8F0" value="Resource" style="edgeStyle=orthogonalEdgeStyle;rounded=1;orthogonalLoop=1;jettySize=auto;html=1;labelBackgroundColor=none;fontColor=#EA6B66;noEdgeStyle=1;orthogonal=1;" edge="1" parent="1" source="61" target="51"><mxGeometry relative="1" as="geometry"><Array as="points"><mxPoint x="312" y="2015"/><mxPoint x="486" y="1658"/></Array></mxGeometry></mxCell></root></mxGraphModel>
            </diagram>
          </mxfile>